<svg width="192" height="192" viewBox="0 0 192 192" fill="none" xmlns="http://www.w3.org/2000/svg">
<g clip-path="url(#clip0_1331_3363)">
<path d="M0 12C0 5.37258 5.37258 0 12 0H180C186.627 0 192 5.37258 192 12V180C192 186.627 186.627 192 180 192H12C5.37258 192 0 186.627 0 180V12Z" fill="black"/>
<path d="M156 96L96 156" stroke="white" stroke-width="16" stroke-linecap="round" stroke-linejoin="round"/>
<path d="M144 30L30 144" stroke="white" stroke-width="16" stroke-linecap="round" stroke-linejoin="round"/>
</g>
<defs>
<clipPath id="clip0_1331_3363">
<path d="M0 12C0 5.37258 5.37258 0 12 0H180C186.627 0 192 5.37258 192 12V180C192 186.627 186.627 192 180 192H12C5.37258 192 0 186.627 0 180V12Z" fill="white"/>
</clipPath>
</defs>
</svg>
